<?xml version="1.0" standalone="no"?> <!DOCTYPE svg PUBLIC "-//W3C//DTD SVG 20010904//EN" "http://www.w3.org/TR/2001/REC-SVG-20010904/DTD/svg10.dtd"> <svg version="1.0" xmlns="http://www.w3.org/2000/svg" width="1200.000000pt" height="928.000000pt" viewBox="0 0 1200.000000 928.000000" preserveAspectRatio="xMidYMid meet"> <g transform="translate(0.000000,928.000000) scale(0.100000,-0.100000)" fill="#ffffff" stroke="none"> <path d="M1422 8801 c-10 -27 14 -46 69 -52 167 -19 322 -128 390 -274 62 -132 60 -27 56 -2405 -3 -2408 3 -2208 -69 -2359 -60 -126 -197 -229 -334 -251 -83 -14 -94 -19 -94 -43 l0 -22 857 0 c777 0 858 2 861 16 4 24 -18 37 -85 48 -64 10 -165 55 -221 98 -48 36 -117 134 -142 201 -49 130 -49 120 -51 1245 l-2 1058 436 -1 437 0 24 52 c14 29 35 70 47 90 13 21 20 41 16 44 -4 4 -24 0 -44 -9 -107 -46 -209 -56 -586 -58 l-328 -1 -1 1253 -1 1254 424 -3 c303 -3 455 -8 532 -18 274 -38 485 -140 668 -323 165 -166 261 -355 305 -601 25 -143 23 -386 -6 -513 -12 -55 -20 -101 -18 -103 3 -2 56 22 119 54 154 78 470 182 553 182 41 0 50 30 42 144 -26 371 -175 659 -465 900 -94 78 -168 125 -293 188 -155 77 -276 117 -528 174 -139 31 -262 37 -900 40 -1682 10 -1662 10 -1668 -5z m1105 -123 c16 -17 17 -92 20 -1224 2 -838 6 -1210 13 -1219 8 -9 8 -15 0 -20 -15 -9 -1 -27 17 -21 11 4 13 1 8 -15 -5 -14 -1 -25 12 -35 13 -11 14 -17 6 -20 -7 -3 -13 -13 -13 -23 0 -9 -7 -26 -15 -38 -10 -14 -13 -32 -9 -47 3 -14 2 -31 -2 -38 -5 -7 -9 -24 -10 -38 -6 -99 -6 -1860 0 -1955 9 -131 38 -243 86 -330 42 -76 46 -103 18 -129 -22 -21 -30 -21 -348 -21 -287 1 -329 3 -359 18 -19 9 -41 17 -49 17 -13 0 -12 3 3 13 10 8 15 19 11 25 -3 5 -2 12 3 14 23 8 90 166 100 237 6 40 16 81 21 91 6 11 9 849 7 2216 l-2 2199 -31 86 c-17 47 -46 113 -63 146 -20 38 -31 73 -29 90 3 24 8 29 43 34 22 4 153 6 292 5 226 -1 254 -3 270 -18z m1896 -170 c20 -7 37 -17 37 -21 0 -5 4 -6 9 -2 9 5 99 -50 183 -112 20 -16 54 -38 75 -51 51 -31 93 -69 128 -117 17 -22 47 -56 68 -76 20 -20 37 -43 37 -52 0 -10 5 -17 10 -17 6 0 10 -6 10 -13 0 -7 8 -22 18 -33 34 -36 109 -208 126 -289 10 -44 24 -101 32 -126 16 -48 12 -74 -12 -83 -9 -3 -12 -10 -9 -16 14 -22 -56 -67 -148 -94 -196 -59 -222 -66 -234 -66 -21 0 -34 69 -43 230 -5 85 -14 178 -20 205 -13 58 -58 223 -67 245 -3 8 -7 23 -8 33 -1 9 -11 28 -23 40 -12 13 -22 31 -22 40 0 10 -7 20 -15 23 -8 4 -15 14 -15 23 0 20 -116 182 -170 239 -23 23 -48 42 -57 42 -9 0 -13 6 -10 14 3 8 -1 20 -9 26 -17 15 -18 37 -1 43 11 4 38 -3 130 -35z"/> <path d="M5560 7300 c-430 -35 -901 -201 -1225 -434 -151 -108 -340 -285 -453 -423 -68 -84 -169 -239 -227 -348 -27 -49 -51 -94 -56 -100 -11 -14 -66 -155 -101 -255 -30 -88 -66 -239 -89 -370 -20 -115 -17 -450 5 -584 87 -529 340 -980 749 -1331 597 -514 1425 -715 2167 -525 308 79 634 272 879 520 85 85 187 205 218 256 10 18 16 14 75 -42 286 -276 633 -446 1068 -526 109 -20 157 -23 370 -23 143 1 278 6 325 13 218 34 470 108 678 198 75 33 374 188 405 209 1 1 4 263 5 581 4 642 3 636 72 780 24 49 48 82 79 108 59 48 126 86 152 86 26 0 48 24 41 43 -4 11 -93 13 -514 10 -279 -2 -584 -1 -676 4 -93 4 -173 5 -179 2 -5 -4 -8 -17 -6 -30 2 -18 10 -25 33 -27 157 -14 304 -109 364 -237 56 -119 56 -120 56 -775 l0 -605 -104 -62 c-124 -74 -261 -125 -413 -154 -98 -19 -136 -21 -298 -16 -222 5 -324 28 -489 109 -327 160 -631 523 -760 908 -16 47 -34 85 -41 85 -7 0 -21 -22 -30 -50 -47 -137 -175 -355 -297 -505 -191 -235 -331 -365 -543 -502 -442 -288 -980 -364 -1452 -207 -236 79 -405 184 -583 363 -311 314 -503 728 -582 1261 -26 174 -26 680 0 850 80 526 242 889 522 1171 125 126 211 192 340 263 434 238 1061 253 1461 36 214 -117 398 -303 499 -503 42 -84 58 -84 69 -4 15 105 93 329 149 430 17 30 26 57 21 62 -14 13 -489 167 -599 194 -384 95 -721 124 -1085 96z m1352 -294 c60 -21 119 -57 124 -74 3 -9 10 -27 16 -38 7 -15 6 -28 -3 -45 -6 -13 -15 -31 -19 -39 -19 -41 -87 -6 -155 80 -22 27 -45 50 -52 50 -6 0 -13 10 -15 23 -2 14 -11 23 -25 25 -27 4 -30 17 -5 31 19 12 83 5 134 -13z m-2313 -112 c-12 -15 -11 -16 11 -9 14 4 27 12 28 16 2 5 13 9 25 9 16 0 22 -6 23 -25 2 -21 -1 -24 -12 -14 -8 7 -18 8 -22 4 -4 -4 -1 -10 6 -12 22 -8 13 -25 -10 -17 -20 6 -21 5 -9 -10 11 -13 11 -16 0 -16 -17 0 -120 -111 -116 -124 2 -6 -11 -25 -29 -42 -17 -18 -45 -50 -60 -71 -16 -21 -35 -42 -41 -46 -7 -4 -13 -19 -13 -32 0 -13 -4 -27 -10 -30 -5 -3 -10 -15 -10 -25 0 -10 -10 -31 -23 -47 -25 -31 -87 -161 -87 -184 0 -8 -10 -30 -21 -49 -12 -19 -28 -62 -37 -95 -8 -33 -21 -70 -29 -82 -8 -12 -12 -27 -9 -32 4 -6 2 -18 -3 -28 -12 -21 -43 -168 -65 -303 -54 -339 -44 -852 22 -1130 11 -47 23 -101 26 -121 4 -21 13 -43 21 -49 11 -9 14 -23 9 -46 -4 -22 -2 -34 5 -34 6 0 11 -15 11 -32 0 -18 9 -46 20 -63 11 -16 20 -37 20 -45 0 -8 20 -60 45 -115 25 -55 45 -107 45 -117 0 -9 6 -21 13 -25 7 -4 25 -34 41 -65 15 -31 34 -62 42 -69 8 -6 14 -18 14 -26 0 -7 6 -16 14 -19 7 -3 26 -27 40 -55 15 -27 31 -49 37 -49 5 0 9 -7 9 -15 0 -7 6 -18 13 -22 6 -4 37 -37 67 -73 30 -36 58 -66 62 -68 5 -2 8 -9 8 -16 0 -7 9 -17 19 -22 24 -11 121 -102 121 -113 0 -4 11 -14 25 -21 13 -7 27 -21 31 -32 3 -10 13 -19 22 -19 15 -1 15 -2 0 -6 -10 -2 -27 6 -40 20 -16 17 -39 26 -76 31 -30 4 -71 18 -93 31 -21 14 -42 25 -47 25 -5 0 -17 9 -27 20 -10 11 -28 20 -41 20 -12 0 -24 3 -26 8 -5 11 -212 147 -220 144 -5 -1 -8 5 -8 13 0 8 -5 15 -10 15 -18 0 -263 237 -297 288 -8 12 -22 22 -29 22 -8 0 -14 9 -14 20 0 11 -4 20 -9 20 -11 0 -121 160 -121 176 0 7 -7 14 -15 18 -8 3 -15 14 -15 25 0 11 -4 22 -9 26 -9 5 -37 52 -93 154 -17 30 -38 80 -49 113 -10 32 -25 66 -34 74 -8 9 -13 20 -10 25 3 5 1 17 -4 27 -6 11 -26 91 -46 178 -57 252 -67 550 -24 759 28 138 77 327 87 334 11 8 52 119 52 142 0 10 3 19 8 19 4 0 21 30 36 68 16 37 35 74 43 83 7 8 13 19 13 23 0 4 15 26 33 49 32 43 49 69 75 120 8 16 20 31 27 33 7 3 32 33 56 66 44 64 292 318 309 318 6 0 24 12 40 28 50 46 59 52 69 52 6 0 16 9 23 20 7 11 18 20 25 20 7 0 24 11 39 25 14 13 42 30 60 37 19 7 34 17 34 23 0 7 10 17 23 23 30 15 31 14 16 -4z m5694 -1873 c30 -12 44 -46 27 -66 -6 -8 -9 -19 -5 -25 4 -6 2 -16 -3 -23 -5 -7 -13 -32 -17 -57 -4 -25 -10 -49 -14 -55 -24 -38 -31 -150 -36 -575 -6 -569 -6 -566 -52 -619 -38 -46 -180 -121 -226 -121 -20 0 -27 -5 -27 -20 0 -28 -36 -26 -44 3 -4 12 -9 276 -11 587 -2 311 -7 597 -11 635 -4 41 -23 116 -46 180 -45 126 -44 152 5 158 68 8 437 7 460 -2z m-2591 -1038 c50 -80 67 -109 77 -129 5 -11 23 -35 40 -52 17 -17 31 -36 31 -42 0 -10 46 -78 61 -90 4 -3 23 -26 43 -52 19 -26 54 -66 76 -88 22 -22 40 -47 40 -55 0 -8 5 -15 10 -15 6 0 10 -6 10 -13 0 -14 -76 -11 -86 4 -3 5 -14 9 -25 9 -10 0 -27 9 -36 20 -10 11 -25 20 -35 20 -10 0 -18 4 -18 8 0 5 -18 19 -41 31 -114 65 -305 212 -315 244 -4 12 -7 33 -6 47 1 34 73 152 100 165 12 5 22 13 22 17 0 21 31 4 52 -29z"/> <path d="M8768 7300 c-193 -19 -465 -85 -636 -156 -459 -189 -796 -498 -1054 -965 -92 -165 -179 -426 -218 -654 -27 -157 -34 -500 -12 -625 47 -268 93 -418 187 -607 69 -141 230 -393 250 -393 24 0 193 306 259 469 66 163 76 197 66 233 -17 65 -39 246 -51 426 -20 301 10 646 80 915 61 230 119 378 217 547 220 377 548 620 929 687 126 22 380 13 485 -17 229 -64 420 -182 579 -355 154 -169 288 -425 331 -632 11 -55 16 -63 35 -63 l22 0 -3 463 -4 462 -162 58 c-276 99 -506 160 -728 192 -125 19 -450 27 -572 15z m1162 -277 c30 -13 106 -50 137 -66 31 -16 55 -98 49 -162 -2 -27 -5 -56 -5 -62 -2 -21 -25 -15 -59 17 -18 17 -37 30 -43 30 -5 0 -9 7 -9 15 0 8 -9 23 -20 32 -11 10 -20 23 -20 30 0 8 -13 16 -29 19 -20 4 -27 11 -24 23 2 9 -5 26 -16 38 -12 12 -21 29 -21 38 0 9 -9 15 -25 15 -31 0 -31 7 -4 29 23 19 51 20 89 4z m-1947 -93 c-3 -11 0 -20 6 -20 6 0 11 7 11 15 0 8 7 15 15 15 8 0 15 -2 15 -4 0 -8 -107 -154 -144 -198 -20 -23 -36 -48 -36 -55 0 -7 -4 -13 -10 -13 -5 0 -10 -5 -10 -11 0 -12 -60 -103 -72 -107 -4 -2 -8 -14 -8 -27 0 -13 -6 -28 -13 -32 -35 -22 -186 -402 -187 -470 0 -12 -6 -28 -14 -36 -8 -8 -15 -30 -14 -48 0 -19 -9 -70 -20 -114 -22 -89 -48 -298 -58 -480 -7 -121 7 -392 28 -560 19 -157 15 -261 -15 -335 -14 -36 -31 -83 -38 -105 -8 -22 -21 -51 -31 -64 -10 -13 -18 -30 -18 -38 0 -9 -14 -34 -32 -57 -17 -22 -33 -42 -34 -44 -1 -2 -11 1 -23 7 -14 8 -22 8 -26 0 -4 -6 -21 17 -38 50 -17 34 -37 61 -44 61 -10 0 -12 7 -8 19 3 11 0 23 -7 28 -14 8 -45 75 -104 222 -23 58 -32 92 -27 110 6 23 5 25 -10 12 -15 -12 -17 -10 -17 22 0 20 -4 57 -10 84 -5 26 -17 85 -26 131 -18 96 -21 408 -4 532 6 41 13 102 16 135 3 33 9 69 14 80 4 11 13 40 20 65 7 25 16 54 20 65 4 11 18 52 30 90 30 91 75 191 90 200 14 8 34 55 31 72 -1 7 6 25 16 40 25 37 39 60 64 107 11 21 29 48 40 59 10 12 19 26 19 32 0 6 35 48 78 94 42 46 79 89 82 95 5 11 97 98 201 190 26 23 79 64 119 91 40 28 81 58 91 68 11 10 24 15 29 12 6 -4 22 3 36 14 33 26 33 26 27 1z"/> <path d="M5828 6333 c-62 -61 -149 -143 -193 -184 -44 -41 -105 -99 -135 -129 l-55 -55 5 -1405 5 -1405 100 -18 c57 -10 162 -18 244 -20 l144 -2 2 1100 c1 605 4 1351 5 1658 1 307 -1 561 -4 564 -3 3 -56 -44 -118 -104z m12 -396 c3 -89 5 -720 5 -1402 0 -1341 2 -1280 -52 -1309 -26 -13 -128 -6 -175 12 -53 21 -59 60 -67 387 -1 25 10 2253 11 2278 0 18 5 26 13 23 8 -3 11 2 8 15 -3 12 0 19 8 19 7 0 45 33 84 74 57 60 78 75 106 78 19 2 38 0 44 -4 5 -5 12 -81 15 -171z"/> <path d="M6060 4346 c0 -797 3 -1226 10 -1226 19 0 233 61 328 93 l97 33 3 954 2 953 -211 206 c-117 113 -216 208 -220 209 -5 2 -9 -538 -9 -1222z m238 857 c17 -19 32 -40 32 -47 0 -7 9 -21 19 -30 28 -26 39 -116 46 -391 9 -367 6 -1170 -4 -1261 -10 -80 -27 -134 -43 -134 -4 0 -8 -6 -8 -12 0 -21 -85 -51 -120 -43 -62 14 -59 -28 -59 976 0 550 4 929 10 952 10 37 10 37 52 31 30 -5 51 -16 75 -41z"/> <path d="M5185 5206 c-62 -64 -273 -263 -363 -342 l-34 -29 1 -640 1 -640 42 -39 c57 -51 180 -144 248 -187 90 -57 190 -111 190 -102 0 4 1 468 2 1031 2 676 0 1022 -7 1022 -5 0 -41 -33 -80 -74z m-15 -1004 c0 -463 -3 -687 -11 -717 -11 -42 -13 -44 -38 -38 -14 3 -30 12 -34 20 -9 14 -33 18 -40 6 -2 -5 -2 -2 -1 5 2 6 -5 12 -15 12 -10 0 -27 11 -37 25 -10 14 -27 25 -36 25 -10 0 -18 5 -18 12 0 6 -10 32 -22 57 l-23 46 1 530 c1 616 -4 582 99 681 36 35 74 66 85 69 11 3 20 10 20 15 0 5 6 7 14 4 8 -3 18 0 22 7 5 9 12 -4 21 -36 10 -38 13 -207 13 -723z"/> <path d="M65 2330 c-3 -4 4 -15 15 -25 18 -17 20 -31 20 -169 0 -123 -3 -156 -16 -174 -9 -13 -14 -26 -11 -29 3 -3 34 -5 68 -6 64 -1 82 10 54 33 -10 9 -15 31 -15 71 l0 59 50 0 c173 0 209 197 43 238 -51 12 -201 14 -208 2z m182 -36 c29 -8 56 -67 48 -104 -8 -37 -49 -70 -85 -70 -35 0 -37 8 -32 103 5 83 8 87 69 71z"/> <path d="M513 2327 c-3 -5 2 -16 11 -26 23 -25 24 -322 1 -341 -33 -27 -17 -40 50 -40 50 0 65 3 65 14 0 8 -4 18 -10 21 -5 3 -10 40 -10 81 0 110 24 98 113 -58 28 -47 34 -52 99 -62 48 -9 60 10 25 38 -31 26 -117 135 -117 151 0 6 13 15 28 21 36 14 66 74 57 114 -7 32 -56 79 -83 81 -183 12 -225 13 -229 6z m210 -59 c10 -11 17 -37 17 -58 0 -50 -37 -82 -89 -78 l-34 3 2 75 c1 41 5 78 8 83 9 15 77 -3 96 -25z"/> <path d="M1010 2315 c0 -6 6 -17 13 -23 18 -19 17 -313 -1 -335 -28 -33 -10 -39 134 -44 109 -4 143 -2 151 9 13 16 25 82 17 91 -9 9 -34 -4 -34 -17 0 -7 -10 -18 -22 -24 -27 -12 -122 -22 -136 -13 -5 3 -11 38 -13 76 l-4 70 51 3 c36 2 54 -1 64 -13 23 -28 36 -17 35 30 -1 53 -9 63 -32 42 -10 -8 -39 -18 -64 -22 -56 -8 -60 -2 -52 84 l6 61 48 0 c54 0 99 -17 99 -37 0 -7 9 -13 20 -13 19 0 20 4 14 38 -4 20 -8 39 -10 41 -8 9 -284 5 -284 -4z"/> <path d="M11135 2322 c-54 -5 -60 -10 -41 -30 13 -15 16 -42 16 -151 0 -173 -13 -201 -95 -201 -18 0 -43 9 -56 19 -23 18 -24 26 -27 166 -3 123 -1 150 12 164 23 25 11 31 -61 31 -64 0 -75 -7 -48 -30 12 -10 15 -40 15 -155 0 -131 2 -145 23 -176 65 -96 215 -90 264 11 20 40 22 61 23 183 0 84 4 137 10 137 12 0 14 27 3 32 -5 2 -21 2 -38 0z"/> <path d="M1466 2311 c-3 -5 1 -14 9 -21 12 -10 15 -43 15 -170 0 -144 -2 -158 -20 -175 -28 -25 -16 -35 40 -35 52 0 71 13 43 29 -15 8 -18 27 -21 135 -2 75 0 126 6 126 5 0 24 -35 42 -77 19 -43 37 -82 40 -88 4 -5 15 -33 24 -62 19 -58 42 -75 55 -40 33 83 74 182 99 237 l31 65 0 -141 c1 -114 -2 -144 -14 -154 -28 -23 -15 -30 55 -30 69 0 87 10 53 28 -14 9 -18 32 -21 162 -4 141 -3 154 16 180 12 15 18 30 15 34 -12 11 -100 6 -110 -6 -5 -7 -24 -49 -42 -93 -18 -44 -40 -94 -47 -112 -8 -17 -14 -36 -14 -41 0 -6 -4 -14 -10 -17 -11 -7 -44 56 -89 170 -18 43 -37 85 -43 92 -12 15 -104 18 -112 4z"/> <path d="M2096 2311 c-3 -5 1 -14 9 -21 23 -19 22 -326 -1 -351 -25 -28 -8 -39 62 -39 66 0 82 13 49 40 -12 10 -15 42 -15 165 0 136 2 155 20 177 10 14 16 28 13 32 -10 9 -131 7 -137 -3z"/> <path d="M2390 2304 c0 -6 7 -17 15 -24 12 -10 15 -42 15 -170 0 -128 -3 -160 -15 -170 -8 -7 -15 -19 -15 -26 0 -11 27 -14 133 -15 184 -2 171 -6 182 59 8 52 -10 57 -43 12 -21 -28 -26 -30 -92 -30 l-70 0 0 80 0 80 45 0 c33 0 50 -6 65 -22 24 -26 26 -24 33 28 6 53 -7 77 -28 50 -9 -13 -31 -20 -65 -24 l-51 -5 3 74 3 74 55 -3 c70 -4 90 -10 90 -27 0 -14 25 -27 34 -18 10 10 7 53 -4 74 -10 18 -21 19 -150 17 -99 -2 -140 -6 -140 -14z"/> <path d="M2843 2307 c-3 -5 2 -16 11 -26 13 -15 16 -45 16 -176 0 -131 -3 -161 -16 -176 -24 -27 -11 -35 57 -34 64 1 82 12 54 35 -11 9 -15 32 -15 82 0 65 1 69 21 66 14 -2 37 -29 69 -83 58 -94 71 -105 127 -105 52 0 56 15 10 51 -17 15 -51 54 -75 88 -43 61 -43 61 -20 70 42 16 73 59 73 101 0 79 -79 120 -223 117 -46 -1 -86 -6 -89 -10z m208 -53 c27 -24 25 -86 -3 -118 -27 -29 -82 -44 -94 -24 -9 14 -6 147 3 162 8 13 73 -1 94 -20z"/> <path d="M3692 2298 c-55 -27 -87 -66 -109 -134 -14 -46 -15 -63 -5 -110 14 -69 41 -107 100 -141 38 -22 57 -27 111 -27 95 1 150 36 151 97 0 37 -14 34 -58 -12 -58 -61 -111 -66 -170 -16 -77 65 -65 259 19 309 56 33 138 7 160 -51 5 -13 16 -23 24 -23 13 0 15 10 13 51 -3 50 -4 51 -43 65 -58 20 -142 17 -193 -8z"/> <path d="M4167 2291 c-69 -45 -101 -117 -95 -211 6 -82 32 -130 92 -167 86 -55 217 -26 273 59 25 37 28 50 28 127 0 101 -17 139 -83 185 -34 24 -55 31 -105 34 -56 3 -67 0 -110 -27z m148 -21 c30 -12 60 -71 70 -142 9 -60 -17 -151 -52 -184 -53 -49 -127 -24 -159 52 -19 44 -18 172 1 217 23 56 81 80 140 57z"/> <path d="M4605 2309 c-5 -7 1 -19 15 -29 22 -17 22 -20 18 -185 -3 -118 -8 -170 -16 -173 -7 -2 -12 -10 -12 -18 0 -10 14 -14 50 -14 51 0 64 13 35 34 -13 9 -15 35 -13 149 l3 138 95 -133 c129 -182 141 -197 157 -191 10 4 13 45 13 186 0 152 3 183 16 198 26 28 11 49 -35 49 -47 0 -60 -14 -37 -39 14 -15 16 -38 14 -135 l-3 -117 -99 140 c-84 120 -103 141 -125 141 -14 0 -36 3 -47 6 -12 3 -25 0 -29 -7z"/> <path d="M5187 2301 c-44 -28 -56 -52 -57 -107 0 -61 24 -88 112 -128 79 -36 101 -83 58 -126 -36 -36 -103 -21 -134 31 -25 42 -46 38 -46 -10 0 -51 18 -67 79 -76 113 -15 191 36 191 125 0 57 -25 86 -105 125 -96 45 -118 82 -74 126 35 35 103 16 122 -33 3 -10 13 -18 22 -18 11 0 15 11 15 40 0 34 -4 42 -30 55 -39 20 -118 18 -153 -4z"/> <path d="M5514 2305 c-2 -5 -5 -28 -7 -50 -2 -46 16 -54 36 -15 10 20 21 26 55 28 l43 3 -3 -171 c-3 -152 -5 -173 -21 -181 -31 -18 -7 -29 64 -29 55 0 69 3 69 15 0 8 -7 15 -15 15 -13 0 -15 26 -15 175 l0 175 34 0 c27 0 39 -7 56 -30 25 -36 40 -31 40 13 0 60 -3 61 -176 62 -95 0 -158 -4 -160 -10z"/> <path d="M5973 2307 c-3 -5 2 -16 11 -26 23 -25 24 -327 1 -357 -8 -10 -15 -22 -15 -26 0 -5 32 -8 70 -8 70 0 83 7 55 30 -11 9 -15 32 -15 81 0 110 20 105 98 -27 l47 -79 49 -3 c61 -4 78 10 39 33 -15 9 -49 49 -75 88 l-47 71 33 20 c75 42 76 130 3 186 -21 16 -245 31 -254 17z m204 -49 c19 -15 27 -75 13 -107 -12 -31 -46 -51 -85 -51 -25 0 -25 1 -25 84 0 58 4 86 13 89 16 7 69 -3 84 -15z"/> <path d="M6433 2307 c-3 -4 2 -16 11 -26 13 -14 16 -43 16 -150 0 -150 10 -185 61 -221 26 -19 46 -24 98 -24 126 -1 154 42 159 249 2 77 8 145 14 152 16 20 -1 33 -42 33 -45 0 -58 -14 -36 -39 24 -26 23 -271 -1 -311 -23 -40 -80 -57 -121 -36 -17 9 -36 25 -42 35 -5 11 -10 81 -10 156 0 108 3 141 16 160 9 14 15 25 13 26 -21 6 -132 3 -136 -4z"/> <path d="M7050 2304 c-83 -36 -121 -101 -122 -210 -1 -85 24 -140 83 -178 95 -64 269 -28 269 55 0 37 -23 39 -46 3 -31 -47 -96 -66 -146 -43 -82 37 -105 227 -38 312 44 55 150 43 176 -20 21 -49 50 -42 47 12 -2 22 -9 44 -15 51 -38 34 -148 44 -208 18z"/> <path d="M7394 2306 c-2 -6 -5 -29 -6 -51 -3 -47 15 -55 35 -15 10 20 21 26 56 28 l43 3 -4 -171 c-3 -150 -6 -173 -21 -181 -31 -18 -8 -29 58 -29 65 0 89 11 59 28 -14 8 -17 36 -22 180 l-5 172 36 0 c29 0 41 -6 59 -30 12 -16 25 -30 30 -30 14 0 9 100 -4 101 -160 6 -311 4 -314 -5z"/> <path d="M7845 2310 c-3 -5 2 -15 10 -23 12 -13 15 -48 15 -191 0 -111 -4 -176 -10 -176 -5 0 -10 -7 -10 -15 0 -12 14 -15 65 -15 36 0 65 2 65 4 0 2 -7 17 -15 32 -22 43 -22 320 1 352 8 12 13 26 10 31 -7 11 -124 12 -131 1z"/> <path d="M8235 2303 c-67 -35 -98 -78 -116 -162 -17 -82 16 -179 77 -220 97 -66 229 -37 286 64 18 33 23 55 22 120 0 108 -27 157 -111 199 -40 20 -119 20 -158 -1z m138 -44 c27 -21 57 -99 57 -150 0 -148 -99 -238 -177 -160 -49 49 -66 142 -42 237 21 83 103 120 162 73z"/> <path d="M8640 2306 c0 -7 7 -19 15 -26 12 -10 15 -43 15 -176 0 -131 -3 -165 -15 -178 -26 -26 -17 -36 35 -36 28 0 50 2 50 5 0 3 -6 16 -14 28 -17 27 -27 277 -11 277 9 0 156 -198 210 -282 9 -16 26 -28 36 -28 18 0 19 10 19 187 0 157 3 189 16 204 23 26 9 39 -42 39 -47 0 -54 -11 -29 -44 11 -15 15 -48 15 -123 0 -57 -3 -103 -8 -103 -7 0 -96 117 -160 211 -35 51 -47 59 -98 59 -22 0 -34 -5 -34 -14z"/> <path d="M9466 2290 c-37 -24 -53 -43 -72 -85 -54 -123 -13 -256 93 -300 59 -25 167 -16 221 18 8 5 12 33 12 78 0 39 4 69 10 69 6 0 10 7 10 15 0 12 -14 15 -65 15 -66 0 -78 -7 -50 -30 10 -8 15 -31 15 -70 0 -55 -2 -58 -30 -70 -25 -10 -37 -10 -67 1 -61 24 -78 57 -81 162 -2 81 0 97 20 132 17 29 35 44 64 54 38 13 44 13 75 -5 19 -11 40 -32 47 -47 13 -26 36 -36 46 -19 3 5 3 26 -1 46 -8 49 -41 66 -131 66 -59 0 -75 -4 -116 -30z"/> <path d="M9877 2313 c-4 -3 1 -15 10 -26 26 -28 26 -321 0 -360 -9 -14 -13 -28 -9 -30 6 -3 119 -2 131 2 2 1 -3 11 -12 24 -8 12 -16 52 -18 87 -4 59 -2 65 16 65 13 0 30 -17 52 -55 66 -115 65 -114 113 -122 59 -10 70 3 33 39 -17 15 -49 56 -72 91 l-42 62 26 12 c33 15 65 67 65 105 0 39 -32 79 -77 98 -36 15 -203 21 -216 8z m193 -53 c14 -14 20 -33 20 -63 0 -57 -32 -90 -81 -85 -37 3 -35 -6 -30 126 1 41 2 42 36 42 22 0 43 -8 55 -20z"/> <path d="M10392 2285 c-44 -38 -82 -120 -82 -178 0 -86 41 -158 110 -194 53 -29 107 -29 165 -2 144 68 153 307 14 391 -21 13 -49 18 -97 18 -64 0 -71 -2 -110 -35z m151 -6 c14 -6 35 -30 48 -53 19 -33 23 -55 23 -117 -1 -94 -30 -158 -81 -172 -79 -23 -133 46 -133 170 0 81 18 132 56 162 30 24 52 26 87 10z"/> <path d="M11310 2313 c0 -4 7 -17 15 -27 22 -29 22 -328 0 -346 -33 -27 -17 -40 50 -40 69 0 78 8 50 44 -9 12 -15 42 -15 73 l0 53 40 0 c112 0 182 91 139 182 -23 50 -56 63 -171 66 -60 2 -108 0 -108 -5z m186 -46 c49 -43 30 -148 -31 -163 -48 -12 -55 -1 -55 80 0 41 3 81 6 90 9 23 49 20 80 -7z"/> <path d="M5807 1453 c-3 -5 -5 -144 -5 -310 l1 -301 41 -4 c23 -3 46 -3 51 -1 6 2 10 115 10 311 l0 307 -47 3 c-25 2 -49 -1 -51 -5z"/> <path d="M5590 1086 c0 -157 4 -246 10 -248 6 -2 31 -2 55 0 l45 4 0 244 0 244 -55 0 -55 0 0 -244z"/> <path d="M6010 1323 c0 -4 -1 -114 -1 -243 l-1 -235 52 0 52 0 1 240 0 240 -52 3 c-28 2 -51 -1 -51 -5z"/> <path d="M1060 1126 c-37 -37 -76 -36 2106 -36 l2115 0 -3 21 -3 20 -2103 2 c-1318 1 -2107 -2 -2112 -7z"/> <path d="M6428 1123 c-32 -39 -64 -38 2112 -35 l2101 2 -3 21 -3 20 -2098 2 c-1669 2 -2101 -1 -2109 -10z"/> </g> </svg>